<svg width="226" height="45" viewBox="0 0 226 45" fill="none" xmlns="http://www.w3.org/2000/svg">
<path d="M0 22.1635L22.0622 0H0V22.1635Z" fill="#00377B"/>
<path d="M22.0622 44.5025L0 22.1631V44.5025H22.0622Z" fill="#00377B"/>
<path d="M22.0624 44.5025L43.9509 22.1631V44.5025H22.0624Z" fill="#00377B"/>
<path d="M43.9509 22.1635L22.0624 0H43.9509V22.1635Z" fill="#50B848"/>
<path d="M22.0622 0L0 22.1635H22.0622V0Z" fill="url(#paint0_linear)"/>
<path d="M0 22.1631L22.0622 44.5025V22.1631H0Z" fill="url(#paint1_linear)"/>
<path d="M43.9509 22.1631L22.0624 44.5025V22.1631H43.9509Z" fill="white"/>
<path d="M43.9509 22.1635L22.0624 0V22.1635H43.9509Z" fill="url(#paint2_linear)"/>
<path d="M65.6653 35.532C66.1865 35.532 66.8814 35.7079 67.2288 35.8838L67.75 35.0043C67.2288 34.6525 66.5339 34.4766 65.6653 34.4766C63.0596 34.4766 61.3224 36.2356 61.3224 38.3464C61.3224 40.6331 63.0596 42.3921 65.6653 42.3921C66.3602 42.3921 67.2288 42.2162 67.75 41.8644L67.2288 40.809C66.8814 40.9849 66.3602 41.1608 65.6653 41.1608C64.2756 41.1608 63.0596 40.1054 63.0596 38.3464C63.0596 36.5874 64.1019 35.532 65.6653 35.532ZM73.1352 37.4669H70.0083V34.4766H68.4448V42.2162H70.0083V38.5223H73.1352V42.2162H74.6987V34.6525H73.1352V37.4669ZM75.9147 42.2162H77.4782V34.4766H75.9147V42.2162ZM84.2532 39.9295C82.8635 37.9946 81.4737 36.2356 80.084 34.6525H78.8679V42.2162H80.084V36.7633C81.4737 38.6982 82.8635 40.4572 84.2532 42.2162H85.4692V34.4766H84.2532V39.9295ZM90.3333 34.4766H89.1173L85.9904 42.2162H87.3801L88.075 40.1054H90.6808L91.3757 42.2162H93.1128L90.3333 34.4766ZM88.5962 39.05C88.9436 38.1705 89.291 37.1151 89.6385 36.0597C89.9859 37.1151 90.3333 37.9946 90.6808 39.05H88.5962Z" fill="#00377B"/>
<path d="M174.239 42.2162H175.803V39.2259H178.235V38.1705H175.803V35.7079H178.235L178.93 34.6525H174.239V42.2162ZM179.451 42.2162H181.014V34.4766H179.451V42.2162ZM187.616 39.9295C186.226 37.9946 184.836 36.2356 183.446 34.6525H182.23V42.2162H183.446V36.7633C184.836 38.6982 186.226 40.4572 187.616 42.2162H188.832V34.4766H187.616V39.9295ZM192.48 34.4766L189.353 42.2162H190.742L191.437 40.1054H194.043L194.738 42.2162H196.475L193.696 34.4766H192.48ZM191.959 39.05C192.306 38.1705 192.653 37.1151 193.001 36.0597C193.348 37.1151 193.696 37.9946 194.043 39.05H191.959ZM202.382 39.9295C200.992 37.9946 199.602 36.2356 198.212 34.6525H196.996V42.2162H198.212V36.7633C199.602 38.6982 200.992 40.4572 202.382 42.2162H203.598V34.4766H202.382V39.9295ZM208.809 35.532C209.33 35.532 210.025 35.7079 210.373 35.8838L210.894 35.0043C210.373 34.6525 209.678 34.4766 208.809 34.4766C206.203 34.4766 204.466 36.2356 204.466 38.3464C204.466 40.6331 206.203 42.3921 208.809 42.3921C209.504 42.3921 210.373 42.2162 210.894 41.8644L210.373 40.809C210.025 40.9849 209.504 41.1608 208.809 41.1608C207.419 41.1608 206.203 40.1054 206.203 38.3464C206.203 36.5874 207.419 35.532 208.809 35.532ZM211.589 42.2162H213.152V34.4766H211.589V42.2162ZM216.626 34.4766L213.5 42.2162H214.889L215.584 40.1054H218.19L218.885 42.2162H220.622L217.843 34.4766H216.626ZM216.105 39.05C216.453 38.1705 216.8 37.1151 217.148 36.0597C217.495 37.1151 217.843 37.9946 218.19 39.05H216.105ZM222.88 41.1608V34.6525H221.317V42.2162H225.834V41.1608H222.88Z" fill="#00377B"/>
<path d="M99.7138 34.4766H97.108V42.2162H99.5401C102.146 42.2162 103.883 40.6331 103.883 38.1705C103.883 36.2356 102.841 34.4766 99.7138 34.4766ZM99.7138 41.1608H98.8452V35.7079H99.8875C101.451 35.7079 102.32 36.5874 102.32 38.1705C102.32 40.2813 101.277 41.1608 99.7138 41.1608ZM108.921 35.532L109.616 34.4766H104.925V42.2162H109.442V41.1608H106.489V38.6982H108.921V37.6428H106.489V35.7079H108.921V35.532ZM113.438 40.4572C112.743 38.3464 111.527 34.4766 111.527 34.4766H109.789L112.569 42.2162H113.785L116.738 34.4766H115.348C115.522 34.4766 114.132 38.1705 113.438 40.4572ZM121.429 35.532L122.123 34.4766H117.433V42.2162H121.95V41.1608H118.997V38.6982H121.429V37.6428H118.997V35.7079H121.429V35.532ZM124.034 34.4766H122.471V42.2162H126.988V41.1608H124.034V34.4766ZM130.809 34.4766C128.725 34.4766 126.988 36.2356 126.988 38.3464C126.988 40.6331 128.377 42.3921 130.809 42.3921C133.068 42.3921 134.631 40.6331 134.631 38.3464C134.457 36.0597 132.894 34.4766 130.809 34.4766ZM130.809 41.1608C129.246 41.1608 128.725 39.7536 128.725 38.1705C128.725 36.7633 129.42 35.532 130.809 35.532C132.199 35.532 132.894 36.7633 132.894 38.1705C132.894 39.7536 132.373 41.1608 130.809 41.1608ZM148.181 34.4766C147.313 36.2356 146.097 39.2259 145.575 40.2813C145.228 39.2259 144.012 36.4115 143.317 34.4766H141.406V42.2162H142.622V36.4115C143.317 38.5223 144.186 40.2813 145.054 42.2162H145.923C146.791 40.2813 147.66 38.5223 148.355 36.4115V42.2162H149.918V34.4766H148.181ZM155.477 35.532L156.172 34.4766H151.482V42.2162H155.999V41.1608H152.872V38.6982H155.304V37.6428H152.872V35.7079H155.477V35.532ZM161.905 39.9295C160.515 37.9946 159.125 36.2356 157.736 34.6525H156.52V42.2162H157.736V36.7633C159.125 38.6982 160.515 40.4572 161.905 42.2162H163.121V34.4766H161.905V39.9295ZM137.932 34.4766H135.5V42.2162H137.063V39.4018H137.758C139.495 39.4018 140.711 38.1705 140.711 36.7633C140.711 35.1802 139.669 34.4766 137.932 34.4766ZM137.758 38.3464H137.237H137.063V35.7079H137.758C138.627 35.7079 139.148 36.0597 139.148 36.9392C139.148 37.8187 138.453 38.1705 137.758 38.3464ZM163.816 34.4766V35.532H166.074V42.0403H167.638V35.532H169.375L170.07 34.4766H163.816Z" fill="#00377B"/>
<path d="M211.936 6.86053H223.054L222.533 10.2026H224.791L225.312 6.33283C225.312 5.62922 224.618 4.92562 223.923 4.92562H218.537L217.843 2.28711H215.411L216.105 4.92562H209.852V10.0267H211.936V6.86053Z" fill="#00377B"/>
<path d="M218.364 8.26758V11.7856C218.364 12.4892 218.364 13.5446 218.885 14.0723C219.406 14.6 220.275 14.6 220.97 14.6C222.186 14.6 223.228 14.6 224.444 14.6V12.841H221.144C220.449 12.841 220.449 12.841 220.449 11.9615V8.26758H218.364Z" fill="#00377B"/>
<path d="M210.547 13.5447V15.3037C214.369 14.0724 216.106 12.1375 216.453 8.2677V8.0918H214.195V8.2677C214.021 11.258 212.979 12.6652 210.547 13.5447Z" fill="#00377B"/>
<path d="M218.537 23.9231V18.4702H224.444V16.3594H210.546V18.4702H216.105V23.9231H208.983V25.858H225.834V23.9231H218.537Z" fill="#00377B"/>
<path d="M208.983 13.0169C208.983 13.0169 207.593 13.5446 206.898 13.7205V8.61942H208.983V6.86041H206.898V2.46289H204.466V7.03631H201.166V8.61942H204.466V14.6C203.077 15.1277 201.166 15.6554 201.166 15.6554V17.5904C201.166 17.5904 203.424 16.8868 204.466 16.535V23.571C204.466 24.0987 204.466 24.0987 203.945 24.2746C203.077 24.2746 202.382 24.2746 201.513 24.2746L202.034 26.3854C203.077 26.3854 204.293 26.5613 205.335 26.3854C206.551 26.2095 207.072 24.9782 207.072 23.9228V15.6554C207.767 15.3036 209.157 14.9518 209.157 14.9518V13.0169H208.983Z" fill="#00377B"/>
<path d="M186.052 2.46289H183.794C180.667 6.33271 177.54 8.97122 173.892 10.3784V12.4892C175.282 11.9615 177.193 11.2579 178.409 10.3784V11.9615H183.62V15.1277H175.108V17.0627H183.62V23.9228H173.718V25.8577H196.302V23.9228H186.226V17.0627H194.912V15.1277H186.226V11.9615H191.611V10.3784C193.001 11.2579 194.912 11.9615 196.302 12.4892V10.3784C192.48 8.97122 189.353 6.33271 186.052 2.46289ZM178.93 10.0266C181.188 8.61942 183.099 6.68451 184.836 4.7496C186.573 6.68451 188.658 8.44352 190.916 10.0266H178.93Z" fill="#00377B"/>
<path d="M179.451 23.3955L181.709 22.516V22.3401C181.188 20.757 179.798 18.8221 178.756 17.5908L177.193 18.2944V18.4703C178.235 20.2293 178.93 21.8124 179.451 23.3955Z" fill="#00377B"/>
<path d="M188.137 22.516L189.526 23.3955C190.916 21.9883 192.306 20.0534 193.175 18.6462V18.4703L191.09 17.5908V17.7667C190.395 18.998 189.353 20.757 188.137 22.516Z" fill="#00377B"/>
<path d="M82.3423 5.98091H73.6564V2.46289H71.0506V5.98091H61.3224V19.1735C61.3224 20.053 62.0173 20.7566 62.8859 20.7566H71.0506V26.9131H73.6564V20.7566H83.732V7.38811C83.732 6.68451 83.2109 5.98091 82.3423 5.98091ZM71.0506 18.6458H63.7544V7.91581H71.0506V18.6458ZM81.3 18.6458H73.8301V7.91581H81.3V18.6458Z" fill="#00377B"/>
<path d="M95.1976 6.86041H97.6297V5.62911H103.884V6.86041H106.316V5.62911H111.701V3.6942H106.316V2.46289H103.884V3.6942H97.6297V2.46289H95.1976V3.6942H89.8123V5.62911H95.1976V6.86041ZM102.146 20.5807V18.6458H111.527V16.7109H102.146V14.0723H105.621L105.273 15.8314H107.705L108.053 14.0723H112.743V12.3133H108.053V10.5543H105.621V12.3133H102.146V9.67482H111.875V7.73991H90.1598V9.67482H99.5406V12.3133H96.0662V10.5543H93.6341V12.3133H88.9438V14.0723H93.6341L93.8079 15.8314H96.2399L95.8925 14.0723H99.3668V16.535H89.9861V18.4699H99.3668V20.4048H88.5963V22.3397H99.3668V26.5613H101.973V22.3397H112.743V20.4048H102.146V20.5807Z" fill="#00377B"/>
<path d="M136.543 18.4704H132.894V16.1837H135.327V14.4246H122.819V16.1837H125.251V18.4704H121.603V20.2294H125.251C125.251 21.8125 124.382 22.8679 122.819 23.7474V25.6823C125.946 24.8028 127.335 22.5161 127.509 20.2294H130.636V25.8582H132.894V20.2294H136.543V18.4704ZM130.636 18.4704H127.509V16.1837H130.636V18.4704ZM138.801 3.16699H130.115V13.1933H137.932V23.5715C137.932 24.0992 137.759 24.2751 137.237 24.2751C136.369 24.2751 135.5 24.2751 134.632 24.2751H134.458L134.979 26.3859H135.153C136.369 26.3859 137.932 26.5618 139.148 26.21C140.191 25.8582 140.364 24.8028 140.364 23.7474V4.5742C140.191 3.8706 139.669 3.16699 138.801 3.16699ZM137.932 11.0825H132.373V8.97172H137.932V11.0825ZM137.932 7.21271H132.373V5.1019H137.932V7.21271ZM127.857 3.16699H119.518C118.823 3.16699 118.128 3.8706 118.128 4.5742V26.3859H120.387V13.1933H127.857V3.16699ZM125.598 11.0825H120.213V8.97172H125.598V11.0825ZM125.598 7.21271H120.213V5.1019H125.598V7.21271Z" fill="#00377B"/>
<path d="M165.033 9.14774C166.249 8.26823 167.291 7.74053 167.986 7.03693L166.422 5.62972C165.727 6.33333 164.685 7.03693 163.295 8.09233C162.774 7.74053 162.253 7.21283 161.906 6.86103C163.295 5.98152 164.338 5.10202 165.206 4.39842L163.643 2.99121C162.948 3.69481 161.906 4.57432 160.69 5.45382C160.168 4.75022 159.647 4.04662 159.3 3.34301H157.041C158.258 6.68513 160.69 8.97184 162.948 10.379H157.736V13.0176C157.736 14.2489 157.389 14.9525 156.173 15.1284V16.8874C157.563 16.8874 159.995 15.4802 159.995 13.0176V11.7862H162.253V13.8971C162.253 15.832 162.774 16.3597 164.511 16.3597H166.77V14.6007C166.77 14.6007 164.859 14.6007 164.685 14.6007C164.338 14.6007 164.338 14.6007 164.338 13.8971V10.9067C166.422 11.9622 168.159 12.4899 168.681 12.6658V10.9067C166.943 10.2031 165.033 9.14774 165.033 9.14774ZM166.249 18.8223C166.422 18.1187 165.727 17.2392 165.033 17.2392H156.173V19.1741H163.643C163.122 20.2295 162.253 21.109 161.384 21.9885C160.342 21.109 159.647 20.4054 159.3 19.8777H156.694C157.041 20.7572 158.084 21.9885 159.647 23.2198C158.258 24.0993 156.52 24.4511 155.304 24.627V26.386C157.563 26.0342 159.821 25.3306 161.384 24.2752C163.122 25.3306 165.554 25.8583 167.638 26.2101V24.4511C165.727 24.0993 163.99 23.5716 163.122 23.0439C164.511 21.8126 165.727 20.4054 166.249 18.8223ZM153.741 18.9982H149.05L149.398 16.8874H154.957V12.4899C154.957 11.7862 154.262 11.0826 153.567 11.0826H149.919C153.741 9.14774 155.478 6.50923 156.173 4.75022C156.347 4.39842 156.173 3.87071 155.825 3.69481C155.652 3.51891 155.304 3.34301 154.957 3.34301H147.14V5.27792H153.567C153.567 5.27792 153.046 6.68513 151.482 8.09233C150.788 7.38873 149.919 6.86103 148.877 5.98152L147.487 7.03693H147.661C148.703 7.74053 149.398 8.26823 150.093 8.97184C150.093 8.97184 148.008 10.2031 145.402 10.7308V12.6658C146.445 12.4899 147.313 12.1381 148.008 11.9622V12.6658H153.046V14.9525H147.487C147.487 14.9525 146.792 19.1741 146.445 20.5813H152.872C152.699 23.3957 152.351 23.7475 152.177 23.7475C152.177 23.7475 152.004 23.9234 151.83 23.9234C151.656 23.9234 148.008 23.7475 148.008 23.7475L148.182 25.6824C149.572 25.6824 150.961 25.8583 152.351 25.8583C152.872 25.8583 153.567 25.8583 153.915 25.3306C154.262 24.8029 154.609 23.9234 154.783 23.2198C155.131 21.9885 155.131 21.4608 155.304 20.2295C155.131 19.5259 154.436 18.9982 153.741 18.9982Z" fill="#00377B"/>
<defs>
<linearGradient id="paint0_linear" x1="11.0271" y1="11.1639" x2="22.3936" y2="22.3894" gradientUnits="userSpaceOnUse">
<stop stop-color="#EF4623"/>
<stop offset="0.2" stop-color="#F15A22"/>
<stop offset="0.52" stop-color="#F6861F"/>
<stop offset="1" stop-color="#FFE300"/>
</linearGradient>
<linearGradient id="paint1_linear" x1="11.0275" y1="33.3349" x2="22.3949" y2="22.1085" gradientUnits="userSpaceOnUse">
<stop stop-color="#EF4623"/>
<stop offset="0.2" stop-color="#F15A22"/>
<stop offset="0.52" stop-color="#F6861F"/>
<stop offset="1" stop-color="#FFE300"/>
</linearGradient>
<linearGradient id="paint2_linear" x1="33.0448" y1="11.0409" x2="21.838" y2="22.1087" gradientUnits="userSpaceOnUse">
<stop stop-color="#093C87"/>
<stop offset="0.2" stop-color="#02408B"/>
<stop offset="0.52" stop-color="#0063AC"/>
<stop offset="1" stop-color="#00AEEF"/>
</linearGradient>
</defs>
</svg>
